<svg width="104" height="46" viewBox="0 0 104 46" fill="none" xmlns="http://www.w3.org/2000/svg">
<circle cx="23" cy="23" r="23" fill="#8479F7"/>
<circle cx="23" cy="23" r="22" stroke="white" stroke-opacity="0.5" stroke-width="2"/>
<mask id="mask0_206_982" style="mask-type:alpha" maskUnits="userSpaceOnUse" x="0" y="0" width="46" height="46">
<circle cx="23" cy="23" r="23" fill="#D9D9D9"/>
</mask>
<g mask="url(#mask0_206_982)">
<path d="M22.7125 23L6.52868 -5.03125L38.8964 -5.03125L22.7125 23Z" fill="#FBB32B"/>
</g>
<mask id="mask1_206_982" style="mask-type:alpha" maskUnits="userSpaceOnUse" x="0" y="0" width="46" height="46">
<circle cx="23" cy="23" r="23" fill="#D9D9D9"/>
</mask>
<g mask="url(#mask1_206_982)">
<path d="M22.7126 23C22.8178 22.9118 41.3028 -9.40855 41.3028 -9.40855L56.9942 41.4591C56.9942 41.4591 22.6073 23.0882 22.7126 23Z" fill="#D05680"/>
</g>
<mask id="mask2_206_982" style="mask-type:alpha" maskUnits="userSpaceOnUse" x="0" y="0" width="46" height="46">
<circle cx="23" cy="23" r="23" fill="#D9D9D9"/>
</mask>
<g mask="url(#mask2_206_982)">
<path d="M22.7125 23L57.2125 41.1125L-11.5 55.775L22.7125 23Z" fill="#4EB393"/>
</g>
<mask id="mask3_206_982" style="mask-type:alpha" maskUnits="userSpaceOnUse" x="0" y="0" width="46" height="46">
<circle cx="23" cy="23" r="23" fill="#D9D9D9"/>
</mask>
<g mask="url(#mask3_206_982)">
<path d="M3.16252 -12.075L22.7125 23L-1.72498 4.31249L3.16252 -12.075Z" fill="#4265B7"/>
</g>
<circle cx="23" cy="23" r="14.5" stroke="white" stroke-opacity="0.5" stroke-width="3"/>
<circle cx="23" cy="23" r="10" fill="#1E2124"/>
<path d="M93.1154 29.9694V27.6799H104V29.9694H99.9425V40.814H97.1729V29.9694H93.1154Z" fill="white"/>
<path d="M82.4623 40.814V27.6799H91.3926V29.9694H85.2644V33.099H90.9332V35.3885H85.2644V38.5245H91.4185V40.814H82.4623Z" fill="white"/>
<path d="M77.3872 31.9253C77.2966 31.6132 77.1693 31.3374 77.0054 31.098C76.8415 30.8543 76.6408 30.649 76.4036 30.4823C76.1706 30.3113 75.9031 30.1809 75.6011 30.0911C75.3035 30.0013 74.9734 29.9564 74.611 29.9564C73.9337 29.9564 73.3384 30.1232 72.825 30.4566C72.3159 30.7901 71.919 31.2754 71.6343 31.9124C71.3495 32.5452 71.2072 33.3191 71.2072 34.234C71.2072 35.1489 71.3474 35.9271 71.6278 36.5684C71.9082 37.2097 72.3051 37.6992 72.8185 38.037C73.3319 38.3705 73.938 38.5372 74.6369 38.5372C75.2711 38.5372 75.8125 38.4261 76.2612 38.2037C76.7142 37.9771 77.0593 37.6586 77.2966 37.2482C77.5382 36.8377 77.659 36.3525 77.659 35.7924L78.2285 35.8758H74.8116V33.7851H80.3575V35.4397C80.3575 36.594 80.1116 37.5859 79.6198 38.4154C79.128 39.2405 78.4506 39.8776 77.5878 40.3265C76.725 40.7711 75.737 40.9935 74.624 40.9935C73.3815 40.9935 72.29 40.722 71.3495 40.179C70.409 39.6317 69.6756 38.8557 69.1493 37.851C68.6273 36.842 68.3663 35.6449 68.3663 34.2596C68.3663 33.1951 68.5216 32.2459 68.8322 31.4122C69.1471 30.5742 69.5872 29.8645 70.1523 29.283C70.7175 28.7016 71.3754 28.2591 72.1261 27.9555C72.8767 27.652 73.69 27.5002 74.5657 27.5002C75.3164 27.5002 76.0153 27.6092 76.6624 27.8272C77.3095 28.041 77.8833 28.3446 78.3838 28.7379C78.8885 29.1313 79.3005 29.5994 79.6198 30.1424C79.939 30.6811 80.1439 31.2754 80.2345 31.9253H77.3872Z" fill="white"/>
<path d="M60.0395 40.814H55.3413V27.6799H60.0783C61.4114 27.6799 62.5589 27.9428 63.521 28.4687C64.4831 28.9903 65.2229 29.7406 65.7406 30.7197C66.2626 31.6988 66.5236 32.8703 66.5236 34.2341C66.5236 35.6023 66.2626 36.778 65.7406 37.7614C65.2229 38.7447 64.4787 39.4993 63.5081 40.0252C62.5417 40.5511 61.3855 40.814 60.0395 40.814ZM58.1434 38.4347H59.923C60.7513 38.4347 61.448 38.2894 62.0132 37.9986C62.5827 37.7036 63.0098 37.2483 63.2945 36.6326C63.5835 36.0127 63.7281 35.2132 63.7281 34.2341C63.7281 33.2636 63.5835 32.4705 63.2945 31.8548C63.0098 31.2392 62.5848 30.786 62.0197 30.4952C61.4545 30.2045 60.7578 30.0591 59.9295 30.0591H58.1434V38.4347Z" fill="white"/>
<path d="M50.234 27.6799H53.036V36.2094C53.036 37.1671 52.8052 38.0051 52.3436 38.7233C51.8863 39.4416 51.2456 40.0017 50.4216 40.4036C49.5976 40.8012 48.6377 41 47.5419 41C46.4418 41 45.4798 40.8012 44.6558 40.4036C43.8317 40.0017 43.1911 39.4416 42.7338 38.7233C42.2765 38.0051 42.0478 37.1671 42.0478 36.2094V27.6799H44.8499V35.9721C44.8499 36.4723 44.9599 36.917 45.1799 37.306C45.4043 37.6951 45.7192 38.0008 46.1247 38.2231C46.5303 38.4454 47.0027 38.5566 47.5419 38.5566C48.0855 38.5566 48.5579 38.4454 48.9591 38.2231C49.3647 38.0008 49.6774 37.6951 49.8975 37.306C50.1218 36.917 50.234 36.4723 50.234 35.9721V27.6799Z" fill="white"/>
<path d="M30 40.814V27.6799H35.3064C36.2814 27.6799 37.0946 27.8231 37.7461 28.1095C38.3975 28.396 38.8872 28.7936 39.215 29.3024C39.5429 29.8069 39.7069 30.3884 39.7069 31.0468C39.7069 31.5598 39.6033 32.0109 39.3962 32.4C39.1892 32.7847 38.9044 33.1011 38.542 33.3491C38.184 33.5928 37.7741 33.766 37.3125 33.8686V33.9968C37.8173 34.0182 38.2897 34.1593 38.7297 34.4201C39.1741 34.6809 39.5343 35.0464 39.8104 35.5167C40.0865 35.9828 40.2246 36.5386 40.2246 37.1842C40.2246 37.8811 40.0498 38.5031 39.7004 39.0504C39.3553 39.5934 38.844 40.0231 38.1667 40.3394C37.4894 40.6558 36.6546 40.814 35.6623 40.814H30ZM32.802 38.5438H35.0864C35.8673 38.5438 36.4367 38.3963 36.7948 38.1012C37.1529 37.802 37.3319 37.4044 37.3319 36.9084C37.3319 36.545 37.2435 36.2243 37.0666 35.9464C36.8897 35.6685 36.6373 35.4505 36.3095 35.2923C35.9859 35.1341 35.5998 35.055 35.1511 35.055H32.802V38.5438ZM32.802 33.1759H34.8793C35.2633 33.1759 35.6041 33.1097 35.9018 32.9771C36.2038 32.8403 36.441 32.6479 36.6136 32.4C36.7905 32.152 36.8789 31.8548 36.8789 31.5085C36.8789 31.0339 36.7085 30.6513 36.3677 30.3606C36.0312 30.0698 35.5523 29.9245 34.9311 29.9245H32.802V33.1759Z" fill="white"/>
<path d="M84.6812 6.27559H89.495L94.1302 14.9512H94.3287L98.9639 6.27559H103.778L96.3634 19.2988V26.4203H92.0955V19.2988L84.6812 6.27559Z" fill="white"/>
<path d="M78.5847 12.069C78.5053 11.2755 78.1645 10.6591 77.5624 10.2198C76.9602 9.78042 76.1431 9.56074 75.1108 9.56074C74.4094 9.56074 73.8172 9.6591 73.3342 9.85583C72.8511 10.046 72.4806 10.3116 72.2225 10.6526C71.9711 10.9936 71.8454 11.3805 71.8454 11.8133C71.8321 12.1739 71.9082 12.4887 72.0737 12.7575C72.2457 13.0264 72.4806 13.2592 72.7784 13.4559C73.0761 13.6461 73.4202 13.8133 73.8106 13.9576C74.201 14.0953 74.6179 14.2133 75.0612 14.3117L76.8875 14.7445C77.7741 14.9412 78.588 15.2035 79.3291 15.5314C80.0702 15.8592 80.712 16.2625 81.2546 16.7412C81.7972 17.2199 82.2174 17.7839 82.5151 18.4331C82.8195 19.0823 82.975 19.8265 82.9816 20.6659C82.975 21.8987 82.6574 22.9676 82.0288 23.8725C81.4068 24.7709 80.5069 25.4693 79.3291 25.9677C78.1579 26.4595 76.7452 26.7054 75.091 26.7054C73.45 26.7054 72.0207 26.4562 70.8032 25.9578C69.5923 25.4595 68.6461 24.7217 67.9645 23.7447C67.2896 22.761 66.9356 21.5446 66.9025 20.0954H71.0613C71.1076 20.7708 71.3028 21.3348 71.6469 21.7873C71.9976 22.2332 72.4641 22.5709 73.0463 22.8004C73.6352 23.0233 74.3002 23.1348 75.0413 23.1348C75.7692 23.1348 76.4011 23.0299 76.9371 22.8201C77.4797 22.6102 77.8998 22.3184 78.1976 21.9446C78.4954 21.5709 78.6443 21.1413 78.6443 20.6561C78.6443 20.2036 78.5086 19.8233 78.2373 19.5151C77.9726 19.2069 77.5822 18.9446 77.0661 18.7282C76.5566 18.5118 75.9313 18.315 75.1902 18.138L72.9769 17.5872C71.2631 17.174 69.9099 16.5281 68.9174 15.6494C67.9248 14.7707 67.4319 13.5871 67.4385 12.0985C67.4319 10.8788 67.7594 9.8132 68.4211 8.90171C69.0894 7.99021 70.0059 7.27872 71.1704 6.76723C72.335 6.25574 73.6584 6 75.1406 6C76.6492 6 77.966 6.25574 79.0909 6.76723C80.2224 7.27872 81.1024 7.99021 81.731 8.90171C82.3596 9.8132 82.6839 10.869 82.7037 12.069H78.5847Z" fill="white"/>
<path d="M50.6171 26.4203H46.0118L53.029 6.27559H58.5674L65.5747 26.4203H60.9693L55.8776 10.879H55.7188L50.6171 26.4203ZM50.3293 18.5021H61.2075V21.8268H50.3293V18.5021Z" fill="white"/>
<path d="M30 26.4203V6.27559H43.697V9.78714H34.2977V14.5873H42.9923V18.0988H34.2977V22.9088H43.7367V26.4203H30Z" fill="white"/>
</svg>
