<svg width="120" height="99" viewBox="0 0 120 99" fill="none" xmlns="http://www.w3.org/2000/svg">
<path opacity="0.1" d="M109.452 68.4654H4.38867C4.38867 39.3797 27.9093 15.7987 56.9206 15.7987C85.9318 15.7987 109.452 39.3797 109.452 68.4654Z" fill="#2A94F4"/>
<path opacity="0.1" d="M61.6608 83.0464C89.1099 83.0464 111.362 79.6821 111.362 75.5321C111.362 71.3821 89.1099 68.0178 61.6608 68.0178C34.2116 68.0178 11.9597 71.3821 11.9597 75.5321C11.9597 79.6821 34.2116 83.0464 61.6608 83.0464Z" fill="#2A94F4"/>
<path d="M119.237 22.7035L14.6387 15.0464L68.3105 0.0273438L119.237 22.7035Z" fill="#FFBE55"/>
<path d="M119.761 23.2513C119.893 21.4363 96.3322 18.2337 67.1364 16.098C37.9406 13.9624 14.1657 13.7025 14.0336 15.5175C13.9015 17.3325 37.4623 20.5351 66.6581 22.6707C95.8539 24.8064 119.629 25.0663 119.761 23.2513Z" fill="#FFBE55"/>
<path opacity="0.13" d="M119.761 23.2513C119.893 21.4363 96.3322 18.2337 67.1364 16.098C37.9406 13.9624 14.1657 13.7025 14.0336 15.5175C13.9015 17.3325 37.4623 20.5351 66.6581 22.6707C95.8539 24.8064 119.629 25.0663 119.761 23.2513Z" fill="#0A0A0A"/>
<path d="M66.3047 16.0265L67.9721 16.1485L64.1139 69.1763L62.4465 69.0544L66.3047 16.0265Z" fill="#D3D3D3"/>
<path d="M113.841 77.475H0L5.91815 62.9417H107.923L113.841 77.475Z" fill="#CCE9FF"/>
<path d="M87.1859 38.0083C87.1859 38.0083 89.0288 43.1797 92.3061 44.9987L93.541 50.6273C93.541 50.6273 87.8034 63.1321 81.8282 63.5797C75.8531 64.0273 76.5085 54.0654 76.5085 54.0654C76.5085 54.0654 78.9974 48.7987 77.8384 41.9987C76.6795 35.1987 87.1859 38.0083 87.1859 38.0083Z" fill="#0B4870"/>
<path d="M82.6357 45.4654C85.432 45.4654 87.6989 43.1927 87.6989 40.3892C87.6989 37.5857 85.432 35.313 82.6357 35.313C79.8394 35.313 77.5725 37.5857 77.5725 40.3892C77.5725 43.1927 79.8394 45.4654 82.6357 45.4654Z" fill="#0B4870"/>
<path d="M88.8576 53.7798C91.654 53.7798 93.9208 51.5071 93.9208 48.7036C93.9208 45.9001 91.654 43.6274 88.8576 43.6274C86.0613 43.6274 83.7944 45.9001 83.7944 48.7036C83.7944 51.5071 86.0613 53.7798 88.8576 53.7798Z" fill="#0B4870"/>
<path d="M81.2487 63.6083C84.5277 63.6083 87.1858 60.9433 87.1858 57.6559C87.1858 54.3685 84.5277 51.7035 81.2487 51.7035C77.9697 51.7035 75.3115 54.3685 75.3115 57.6559C75.3115 60.9433 77.9697 63.6083 81.2487 63.6083Z" fill="#0B4870"/>
<path d="M78.9402 37.4274C78.9402 37.4274 78.1518 44.275 81.5146 45.0083H82.075V45.9036L80.1561 46.1798L80.6216 51.8559L81.9515 53.9417C82.835 56.4464 83.2624 59.1036 83.2055 61.7607V61.9131L87.8887 62.9417L91.128 61.9417C91.128 61.9417 89.2661 57.3988 90.2825 53.694C91.0235 50.9893 88.7531 46.4655 88.7531 46.4655C88.7531 46.4655 85.2193 46.5226 84.7159 45.8464C84.2124 45.1702 84.2694 42.8178 84.4879 42.5321C84.7159 42.2559 85.5328 41.8559 85.4283 41.1797C85.3238 40.5036 84.9913 40.0559 84.3739 40.4464C84.3739 40.4559 79.7762 39.9512 78.9402 37.4274Z" fill="#FFE3CA"/>
<path d="M83.196 61.913C83.196 61.913 81.2392 67.5892 84.6685 69.7606L93.8259 63.7606L91.9925 62.9416L91.1376 61.7606C91.1376 61.7606 86.5968 62.6844 83.196 61.913Z" fill="#FFBE55"/>
<path d="M91.9925 62.9417L91.2041 64.8369C91.2041 64.8369 99.8011 71.9988 97.3312 81.3321C94.8709 90.6559 93.446 91.1797 93.522 93.6559C93.598 96.1226 93.7499 97.5321 95.0134 98.0274H95.0229C95.5263 98.0274 95.8778 97.5512 95.7543 97.0655C95.5453 96.2464 94.9754 94.094 95.2414 92.8274C95.6878 90.6559 103.534 73.5797 103.458 70.6559C103.382 67.7417 91.9925 62.9417 91.9925 62.9417Z" fill="#FCD2B1"/>
<path d="M80.1561 46.1893C80.1561 46.1893 77.8003 46.3036 77.5818 48.8274C77.3538 51.3512 77.8098 59.2178 77.8573 60.4559C77.9143 61.694 75.9004 70.2845 75.9004 70.2845L76.9073 71.2369C76.9073 71.2369 80.2131 64.6083 80.4886 62.3607C80.7641 60.1131 80.8781 54.7797 80.7641 52.475C80.6596 50.1797 81.2676 47.6464 80.1561 46.1893ZM84.5069 69.6369C83.9654 68.7988 84.1079 67.6845 84.8109 66.9797C86.1313 65.6559 88.7721 63.7226 92.0019 65.1226C96.6662 67.1417 101.007 69.3131 101.53 70.9607C102.052 72.6083 96.3527 86.5417 95.2222 90.5036C94.1013 94.4369 93.9113 97.8464 93.9113 97.8464C93.9113 97.8464 92.5624 98.6655 92.0019 96.7988C91.4415 94.9226 92.3344 94.7798 92.0019 93.2083C91.6695 91.6369 92.0114 90.2464 93.1989 90.1798C93.1989 90.1798 94.0538 77.6369 96.6662 73.9702C96.6472 73.9512 87.1382 73.7131 84.5069 69.6369ZM88.1832 46.5321C88.1832 46.5321 90.463 45.9226 91.4415 48.2655C92.4199 50.6083 94.3768 58.2369 94.6903 59.4274C95.0037 60.6178 100.428 67.4083 100.428 67.4083L99.9245 68.0369C99.9245 68.0369 93.7118 64.1036 92.7619 62.0464C91.8119 59.9893 90.0925 54.9417 89.5036 52.7131C88.9051 50.4845 87.5562 48.2655 88.1832 46.5321Z" fill="#FFE3CA"/>
<path d="M82.2081 54.7416L90.1117 54.4273C90.1117 54.4273 91.7836 52.7606 89.9407 50.3321C88.0883 47.894 88.2403 46.4749 88.2403 46.4749L87.5183 46.4559C87.5183 46.4559 88.3733 51.2559 87.4043 52.9226C87.4043 52.9226 86.8344 53.8559 86.8154 53.7416C86.8059 53.6273 83.3386 52.4368 82.0752 45.913L80.6882 46.113C80.6882 46.113 81.3437 48.6083 81.0492 51.4178C80.8307 53.5035 82.2081 54.7416 82.2081 54.7416Z" fill="#FFBE55"/>
<path d="M100.865 67.5226C100.865 67.5226 102.166 67.875 102.698 68.3607C103.23 68.8464 103.183 69.8273 103.183 69.8273L102.318 69.0464C102.318 69.0464 101.416 68.7321 101.264 68.6845C101.027 68.5988 100.618 68.7416 101.084 68.9607C101.853 69.3226 101.416 69.7702 101.416 69.7702C101.416 69.7702 100.2 69.1321 100.048 68.8845C99.8961 68.6273 99.7441 67.9226 99.7441 67.9226L99.6966 67.0369L100.865 67.5226ZM75.6155 70.0559C75.6155 70.0559 73.9246 70.5131 73.2407 71.1511C72.5567 71.7892 72.6137 73.0464 72.6137 73.0464L73.7441 72.0369C73.7441 72.0369 74.9221 71.6369 75.1121 71.5607C75.416 71.4559 75.9575 71.6369 75.3401 71.9226C74.3426 72.3988 74.9126 72.9702 74.9126 72.9702C74.9126 72.9702 76.4895 72.1416 76.689 71.8178C76.8885 71.4845 77.088 70.5702 77.088 70.5702L77.1449 69.4273L75.6155 70.0559Z" fill="#FFE3CA"/>
<path d="M30.8068 43.7892C33.3355 43.7892 35.3855 41.734 35.3855 39.1988C35.3855 36.6635 33.3355 34.6083 30.8068 34.6083C28.278 34.6083 26.228 36.6635 26.228 39.1988C26.228 41.734 28.278 43.7892 30.8068 43.7892Z" fill="#0B4870"/>
<path d="M28.4698 44.7131C30.6051 44.7131 32.3361 42.9776 32.3361 40.8369C32.3361 38.6961 30.6051 36.9607 28.4698 36.9607C26.3345 36.9607 24.6035 38.6961 24.6035 40.8369C24.6035 42.9776 26.3345 44.7131 28.4698 44.7131Z" fill="#0B4870"/>
<path d="M24.1001 72.3512C24.1001 72.3512 17.992 72.5797 16.6526 68.0273L24.4421 63.7607L24.1001 72.3512Z" fill="#FFBE55"/>
<path d="M39.8405 62.1797C39.8405 62.1797 24.252 73.5036 24.1 72.3417C24.0525 71.9988 38.8336 58.1893 38.8336 58.1893L44.8087 58.9988C44.8087 58.9988 54.7451 65.7988 55.6951 66.2369C56.645 66.675 59.3334 67.1798 60.5113 67.1798C61.6892 67.1798 61.8602 67.6274 61.2997 68.3607C60.7393 69.094 58.3264 68.7512 57.2055 68.9797C56.0846 69.2083 54.8496 68.5893 54.7926 68.0274C54.7356 67.4655 44.1438 63.0845 44.1438 63.0845L39.8405 62.1797ZM29.1347 49.9512L35.8603 57.1321L33.9509 58.9226L27.7382 53.9226L29.1347 49.9512Z" fill="#FCD2B1"/>
<path d="M33.2859 36.8559C33.2859 36.8559 34.8533 40.2178 33.7324 43.2559C32.6114 46.2845 30.4266 44.8844 30.0371 44.494C30.0371 44.494 29.0871 45.2845 28.9162 45.7321C28.9162 45.7321 32.6684 47.8083 33.4569 49.0464C34.2453 50.2845 45.5022 56.4083 48.3045 56.8559C51.1068 57.3035 50.9928 61.6273 50.9928 61.6273C50.9928 61.6273 49.8149 62.5797 49.7009 61.6273C49.5869 60.6749 48.409 58.6464 47.459 58.4844C46.5091 58.313 45.4452 57.0273 42.6428 56.6845C39.8405 56.3511 33.4379 53.0464 31.4905 51.7416C30.4836 51.0654 29.5336 51.0654 29.5336 51.0654C29.5336 51.0654 28.9731 55.113 27.7952 56.9035C26.6173 58.7035 24.4324 63.7606 24.4324 63.7606L16.6429 68.0273C16.6429 68.0273 16.2534 60.3321 17.7068 56.9035C19.1602 53.4749 23.15 43.513 26.2753 42.4654C27.1113 42.1892 28.8212 41.7987 28.1277 41.4559C27.4912 41.1416 27.6242 38.6368 29.3626 40.0559C29.3626 40.0559 30.5975 39.2178 30.759 37.694C30.93 36.1797 33.2859 36.8559 33.2859 36.8559Z" fill="#FFE3CA"/>
<path d="M37.9312 60.1607C37.9312 60.1607 30.4267 72.1226 24.0906 72.3511L24.4231 63.7607C24.4231 63.7607 36.0124 55.3416 39.0997 54.8273C42.187 54.313 53.1018 69.094 53.6053 69.3226C54.1088 69.5511 57.9751 71.3988 58.868 71.5702C59.7609 71.7416 60.1029 72.694 58.868 72.9226C57.6331 73.1511 55.6762 72.4178 54.3273 72.3607C52.9784 72.3035 52.1424 71.9702 52.0854 71.2369C52.0284 70.5035 52.1994 70.0559 52.1994 70.0559C52.1994 70.0559 38.7197 61.513 37.9312 60.1607Z" fill="#FFE3CA"/>
</svg>
